<svg xmlns="http://www.w3.org/2000/svg" id="svg4533" version="1.1" viewBox="0 0 16.132 18"><defs id="defs4527"><style id="style4525"/></defs><path id="Path_83" d="M8.066 0c-.499 0-.862.29-1.068.576-2.862.43-5.066 2.967-4.932 5.969v3.682c-.13.208-.553.884-1.058 1.783a17.429 17.429 0 00-.756 1.465c-.096.22-.176.402-.227.67-.025.133-.074.29.026.609.05.16.166.373.37.53.206.155.463.216.645.216H5.79l.031.26s.06.534.358 1.08S7.105 18 8.066 18c.962 0 1.59-.614 1.89-1.16.297-.546.357-1.08.357-1.08l.03-.26h4.723c.183 0 .44-.06.645-.217.205-.156.32-.37.37-.53.099-.318.052-.475.026-.608-.05-.268-.13-.45-.226-.67a17.3 17.3 0 00-.756-1.465c-.505-.899-.93-1.575-1.059-1.783V6.5l-.002.045c.135-3.003-2.069-5.54-4.931-5.969C8.927.29 8.566 0 8.066 0zm-.045 2.498l.045.004.045-.004a3.772 3.772 0 013.955 3.957v4.332l.153.242s.617.989 1.164 1.961c.108.193.167.328.263.51H2.486c.097-.182.156-.317.264-.51a57.646 57.646 0 011.164-1.96l.152-.243V6.48l-.002-.024a3.774 3.774 0 013.957-3.957zM7 16.199h2.13c-.029.076-.01.081-.054.16-.193.355-.44.641-1.01.641-.57 0-.818-.286-1.011-.64-.044-.08-.025-.085-.055-.16z" style="line-height:normal;font-variant-ligatures:normal;font-variant-position:normal;font-variant-caps:normal;font-variant-numeric:normal;font-variant-alternates:normal;font-feature-settings:normal;text-indent:0;text-align:start;text-decoration-line:none;text-decoration-style:solid;text-decoration-color:#000;text-transform:none;text-orientation:mixed;white-space:normal;shape-padding:0;isolation:auto;mix-blend-mode:normal;solid-color:#000;solid-opacity:1" color="#000" font-style="normal" font-variant="normal" font-weight="400" font-stretch="normal" font-size="medium" font-family="sans-serif" text-decoration="none" letter-spacing="normal" word-spacing="normal" writing-mode="lr-tb" direction="ltr" dominant-baseline="auto" baseline-shift="baseline" text-anchor="start" clip-rule="nonzero" display="inline" overflow="visible" visibility="visible" opacity="1" color-interpolation="sRGB" color-interpolation-filters="linearRGB" vector-effect="none" fill-opacity="1" fill-rule="nonzero" stroke="none" stroke-width="2" stroke-linecap="butt" stroke-linejoin="miter" stroke-miterlimit="4" stroke-dasharray="none" stroke-dashoffset="0" stroke-opacity="1" color-rendering="auto" image-rendering="auto" shape-rendering="auto" text-rendering="auto"/></svg>