<svg xmlns="http://www.w3.org/2000/svg" viewBox="0 0 16 16"><path d="M8 0C5.827 0 5.554.01 4.7.049a5.87 5.87 0 00-1.942.37 3.922 3.922 0 00-1.416.925A3.922 3.922 0 00.418 2.76 5.873 5.873 0 00.047 4.7c-.04.853-.049 1.127-.049 3.301 0 2.174.01 2.446.049 3.3a5.873 5.873 0 00.371 1.942 3.922 3.922 0 00.924 1.416 3.922 3.922 0 001.416.924 5.871 5.871 0 001.941.371c.853.04 1.127.049 3.301.049 2.174 0 2.446-.01 3.3-.049a5.871 5.871 0 001.942-.371 3.923 3.923 0 001.416-.924 3.922 3.922 0 00.924-1.416 5.872 5.872 0 00.371-1.941c.04-.853.049-1.127.049-3.301 0-2.174-.01-2.446-.049-3.3a5.872 5.872 0 00-.371-1.942 3.922 3.922 0 00-.924-1.416A3.922 3.922 0 0013.242.42a5.87 5.87 0 00-1.941-.371C10.446.009 10.173 0 8 0zm0 1.441c2.136 0 2.388.008 3.232.047a4.426 4.426 0 011.487.276 2.478 2.478 0 01.92.6 2.479 2.479 0 01.6.92 4.426 4.426 0 01.275 1.486c.038.844.047 1.099.047 3.232s-.008 2.388-.047 3.232a4.427 4.427 0 01-.276 1.487 2.479 2.479 0 01-.6.92 2.478 2.478 0 01-.92.6 4.426 4.426 0 01-1.486.275c-.843.038-1.099.046-3.232.046s-2.388-.007-3.232-.046a4.426 4.426 0 01-1.487-.276 2.478 2.478 0 01-.92-.6 2.479 2.479 0 01-.6-.92 4.427 4.427 0 01-.275-1.486c-.038-.844-.047-1.099-.047-3.232s.008-2.388.047-3.232a4.427 4.427 0 01.276-1.487 2.479 2.479 0 01.6-.92 2.478 2.478 0 01.92-.6 4.424 4.424 0 011.486-.275C5.612 1.45 5.867 1.441 8 1.441zm4.271 1.329a.96.96 0 00-.96.96.96.96 0 00.96.96.96.96 0 00.96-.96.96.96 0 00-.96-.96zM8 3.896a4.108 4.108 0 00-4.107 4.108A4.108 4.108 0 008 12.11a4.108 4.108 0 004.107-4.107A4.108 4.108 0 008 3.896zm0 1.442a2.667 2.667 0 012.668 2.666A2.667 2.667 0 018 10.672a2.667 2.667 0 01-2.668-2.668A2.667 2.667 0 018 5.338z"/></svg>