<svg xmlns="http://www.w3.org/2000/svg" viewBox="0 0 18.75 15.235"><path d="M5.9 15.236A10.871 10.871 0 0016.842 4.29c0-.167 0-.332-.011-.5a7.827 7.827 0 001.919-1.991 7.678 7.678 0 01-2.21.605A3.86 3.86 0 0018.231.276a7.709 7.709 0 01-2.443.934 3.851 3.851 0 00-6.556 3.508A10.922 10.922 0 011.304.699a3.85 3.85 0 001.191 5.135 3.818 3.818 0 01-1.746-.481v.049a3.848 3.848 0 003.086 3.771 3.841 3.841 0 01-1.737.066 3.851 3.851 0 003.594 2.672 7.719 7.719 0 01-4.778 1.65 7.83 7.83 0 01-.916-.055 10.891 10.891 0 005.9 1.725"/></svg>