<svg xmlns="http://www.w3.org/2000/svg" viewBox="0 0 16.055 9.4"><path d="M13.336 4.609A21.888 21.888 0 0015.662.645c.07-.35-.084-.546-.448-.546h-1.835a.67.67 0 00-.7.448 16.625 16.625 0 01-2.2 3.446c-.388.431-.585.56-.8.56-.173 0-.252-.144-.252-.532v-3.4c0-.476-.056-.616-.448-.616H6.037a.322.322 0 00-.364.308c0 .449.686.55.686 1.765v2.508c0 .5-.028.7-.266.7-.63 0-2.129-2.171-2.97-4.637-.168-.5-.35-.644-.827-.644H.461a.438.438 0 00-.462.448c0 .49.574 2.76 2.83 5.8a6.958 6.958 0 005.3 3.152c1.093 0 1.359-.182 1.359-.644V7.192c0-.392.154-.56.378-.56.252 0 .7.081 1.737 1.107 1.233 1.177 1.317 1.667 1.989 1.667h2.053c.21 0 .406-.1.406-.448a4.971 4.971 0 00-1.527-2.269c-.378-.5-.995-1.051-1.191-1.3-.28-.294-.2-.462 0-.771"/></svg>